<?xml version="1.0" encoding="utf-8"?>
<!-- Generator: Adobe Illustrator 23.0.0, SVG Export Plug-In . SVG Version: 6.00 Build 0)  -->
<svg version="1.1" id="Layer_1" xmlns="http://www.w3.org/2000/svg" xmlns:xlink="http://www.w3.org/1999/xlink" x="0px" y="0px"
	 viewBox="0 0 300 283.46" style="enable-background:new 0 0 300 283.46;" xml:space="preserve">
<style type="text/css">
	.st0{fill:#3366FF;}
	.st1{fill:#FF3D71;}
</style>
<g>
	<path class="st0" d="M163.31,41.41c-41.57,0-75.26,33.7-75.26,75.26s33.7,75.26,75.26,75.26s75.26-33.7,75.26-75.26
		S204.88,41.41,163.31,41.41z M163.31,172.92c-31.07,0-56.25-25.18-56.25-56.25c0-31.07,25.18-56.25,56.25-56.25
		s56.25,25.18,56.25,56.25C219.56,147.73,194.38,172.92,163.31,172.92z"/>
	<g>
		<path class="st1" d="M191.16,85.1h-55.73l-0.84,22.51h2.38c1.75-6.22,3.75-10.56,6.02-12.99c2.26-2.44,5.37-3.66,9.3-3.66h3.26
			v14.05l7.75,4.37l7.75,4.35V90.96h3.44c3.8,0,6.88,1.27,9.19,3.79c2.31,2.53,4.3,6.82,5.95,12.87h2.38L191.16,85.1z
			 M171.06,140.11v-20.89l-7.61,4.5l-7.9,4.68v11.72l-7.41,0.27v7.84h30.32v-7.7L171.06,140.11z"/>
	</g>
	<path class="st0" d="M109.62,193.37l-46,46.02c-3.55,3.55-9.32,3.55-12.87,0l-2.58-2.58c-3.55-3.55-3.55-9.32,0-12.87l44.82-44.8
		C97.79,184.65,103.4,189.45,109.62,193.37z"/>
</g>
</svg>
